<?xml version="1.0" encoding="iso-8859-1"?>
<!-- Generator: Adobe Illustrator 19.0.0, SVG Export Plug-In . SVG Version: 6.00 Build 0)  -->
<svg version="1.1" id="Layer_1" xmlns="http://www.w3.org/2000/svg" xmlns:xlink="http://www.w3.org/1999/xlink" x="0px" y="0px"
	 viewBox="0 0 512 512" style="enable-background:new 0 0 512 512;" xml:space="preserve">
<path style="fill:#BEC8DC;" d="M185.379,304.552H0v26.483c0,4.875,3.953,8.828,8.828,8.828h114.759h61.793V304.552z
	 M167.724,331.034c-4.875,0-8.828-3.953-8.828-8.828c0-4.875,3.953-8.828,8.828-8.828s8.828,3.953,8.828,8.828
	C176.552,327.082,172.599,331.034,167.724,331.034z"/>
<path style="fill:#464655;" d="M185.379,286.897H17.655V128h300.138v105.931h-44.138c-4.875,0-8.828,3.953-8.828,8.828v8.828h17.655
	h8.828h194.207v114.759H361.931V384h52.966h88.276V242.759c0-4.875-3.953-8.828-8.828-8.828H335.448V119.172
	c0-4.875-3.953-8.828-8.828-8.828H8.828c-4.875,0-8.828,3.953-8.828,8.828v185.379h185.379V286.897z"/>
<path style="fill:#FFDC69;" d="M273.655,233.931h44.138V128H17.655v158.897h167.724v-26.483c0-4.875,3.953-8.828,8.828-8.828h70.621
	v-8.828C264.828,237.884,268.78,233.931,273.655,233.931z"/>
<polygon style="fill:#AFBBD0;" points="185.379,357.517 120.055,357.517 114.759,384 185.379,384 "/>
<polygon style="fill:#96A5B9;" points="185.379,339.862 123.586,339.862 120.055,357.517 120.055,357.517 185.379,357.517 "/>
<path style="fill:#BEC8DC;" d="M185.379,392.828V384h-70.621c-4.875,0-8.828,3.953-8.828,8.828s3.953,8.828,8.828,8.828h79.448
	C189.332,401.655,185.379,397.703,185.379,392.828z"/>
<circle style="fill:#96A5B9;" cx="167.724" cy="322.207" r="8.828"/>
<rect x="300.138" y="366.345" style="fill:#464655;" width="8.828" height="17.655"/>
<path style="fill:#FF6469;" d="M485.517,251.586H291.31c4.875,0,8.828,3.953,8.828,8.828v105.931h8.828v-61.793
	c0-4.875,3.953-8.828,8.828-8.828h35.31c4.875,0,8.828,3.953,8.828,8.828v61.793h123.586V251.586z"/>
<g>
	<path style="fill:#AFBBD0;" d="M503.172,384h-88.276c0,4.875-3.953,8.828-8.828,8.828h-44.138c0,4.875-3.953,8.828-8.828,8.828
		h150.069c4.875,0,8.828-3.953,8.828-8.828S508.047,384,503.172,384z"/>
	<path style="fill:#AFBBD0;" d="M308.966,392.828V384h-8.828v8.828c0,4.875-3.953,8.828-8.828,8.828h26.483
		C312.918,401.655,308.966,397.703,308.966,392.828z"/>
</g>
<path style="fill:#96A5B9;" d="M361.931,392.828h44.138c4.875,0,8.828-3.953,8.828-8.828h-52.966V392.828z"/>
<path style="fill:#707384;" d="M300.138,392.828V384v-17.655V260.414c0-4.875-3.953-8.828-8.828-8.828h-8.828h-17.655h-70.621
	c-4.875,0-8.828,3.953-8.828,8.828v26.483v17.655v35.31v17.655V384v8.828c0,4.875,3.953,8.828,8.828,8.828h26.483h44.138h26.483
	C296.185,401.655,300.138,397.703,300.138,392.828z M242.759,397.241c-2.438,0-4.414-1.976-4.414-4.414s1.976-4.414,4.414-4.414
	s4.414,1.976,4.414,4.414S245.196,397.241,242.759,397.241z M264.828,384H220.69h-26.483V269.241h97.103V384H264.828z"/>
<polygon style="fill:#B4E173;" points="291.31,269.241 194.207,269.241 194.207,384 220.69,384 264.828,384 291.31,384 "/>
<circle style="fill:#464655;" cx="242.759" cy="392.828" r="4.414"/>
<path style="fill:#707384;" d="M361.931,392.828V384v-17.655v-61.793c0-4.875-3.953-8.828-8.828-8.828h-35.31
	c-4.875,0-8.828,3.953-8.828,8.828v61.793V384v8.828c0,4.875,3.953,8.828,8.828,8.828h35.31
	C357.978,401.655,361.931,397.703,361.931,392.828z M335.448,397.241c-2.438,0-4.414-1.976-4.414-4.414s1.976-4.414,4.414-4.414
	s4.414,1.976,4.414,4.414S337.886,397.241,335.448,397.241z M317.793,384v-70.621h35.31V384H317.793z"/>
<rect x="317.793" y="313.379" style="fill:#A0DCF0;" width="35.31" height="70.621"/>
<circle style="fill:#464655;" cx="335.448" cy="392.828" r="4.414"/>
<g>
</g>
<g>
</g>
<g>
</g>
<g>
</g>
<g>
</g>
<g>
</g>
<g>
</g>
<g>
</g>
<g>
</g>
<g>
</g>
<g>
</g>
<g>
</g>
<g>
</g>
<g>
</g>
<g>
</g>
</svg>
