<?xml version="1.0" encoding="iso-8859-1"?>
<!-- Generator: Adobe Illustrator 19.0.0, SVG Export Plug-In . SVG Version: 6.00 Build 0)  -->
<svg version="1.1" id="Layer_1" xmlns="http://www.w3.org/2000/svg" xmlns:xlink="http://www.w3.org/1999/xlink" x="0px" y="0px"
	 viewBox="0 0 508 508" style="enable-background:new 0 0 508 508;" xml:space="preserve">
<circle style="fill:#FFD05B;" cx="254" cy="254" r="254"/>
<path style="fill:#FFFFFF;" d="M394.8,383.2L304,245.6V90.8H204V246l-90.8,137.2c-11.2,16.8,0.8,39.6,21.2,39.6h238.8
	C393.6,422.4,406,400,394.8,383.2z"/>
<rect x="204" y="90.8" style="fill:#E6E9EE;" width="99.6" height="28.8"/>
<path style="fill:#FF7058;" d="M380,400.8c-0.8,1.6-2.8,4-6.8,4H134.4c-4,0-6-2.4-6.8-4s-2-4.4,0.4-8l66.8-101.2
	c20.8-2.8,45.6-2.4,72.8,4.8c19.6,5.2,37.2,7.6,53.2,7.6l58.8,88.8C382,396,380.8,399.2,380,400.8z"/>
<g>
	<circle style="fill:#FFFFFF;" cx="229.2" cy="326.4" r="17.2"/>
	<circle style="fill:#FFFFFF;" cx="259.2" cy="343.6" r="10"/>
	<circle style="fill:#FFFFFF;" cx="236.4" cy="362" r="12.8"/>
	<path style="fill:#FFFFFF;" d="M316,108.4H192c-9.6,0-17.2-7.6-17.2-17.2l0,0c0-9.6,7.6-17.2,17.2-17.2h123.6
		c9.6,0,17.2,7.6,17.2,17.2l0,0C333.2,100.8,325.6,108.4,316,108.4z"/>
</g>
<g>
</g>
<g>
</g>
<g>
</g>
<g>
</g>
<g>
</g>
<g>
</g>
<g>
</g>
<g>
</g>
<g>
</g>
<g>
</g>
<g>
</g>
<g>
</g>
<g>
</g>
<g>
</g>
<g>
</g>
</svg>
