<?xml version="1.0" encoding="iso-8859-1"?>
<!-- Generator: Adobe Illustrator 19.0.0, SVG Export Plug-In . SVG Version: 6.00 Build 0)  -->
<svg version="1.1" id="Layer_1" xmlns="http://www.w3.org/2000/svg" xmlns:xlink="http://www.w3.org/1999/xlink" x="0px" y="0px"
	 viewBox="0 0 280.028 280.028" style="enable-background:new 0 0 280.028 280.028;" xml:space="preserve">
<g>
	<path style="fill:#CCD0D2;" d="M218.588,95.629V69.596h8.742l-0.131-17.038h-51.901l-0.123,17.038h8.733v26.086
		c0,0-26.401,10.685-35.292,19.829c-0.341-0.053,52.584,120.307,52.943,120.666l2.704,0.053c41.838,0,75.765-32.203,75.765-71.915
		C280.036,132.043,249.426,104.73,218.588,95.629z"/>
	<path style="fill:#324D5B;" d="M157.472,133.977c10.685-12.05,28.283-20.214,46.747-20.214c32.168,0,58.237,23.496,58.237,52.479
		s-26.069,52.479-58.237,52.479c-2.389,0-5.924-0.131-8.226-0.385"/>
	<path style="fill:#B9BCBE;" d="M183.724,69.893h34.881v8.48h-34.881V69.893z"/>
	<path style="fill:#EBEBEB;" d="M139.69,78.679l0.052-44.017l8.926,0.131l-0.018-16.95H61.326l-0.018,16.95l8.655-0.131
		l0.061,44.113L0,250.984c0,6.353,5.294,11.201,11.84,11.201h189.316c6.528,0,11.831-4.865,11.831-11.201
		C212.987,250.984,139.69,78.679,139.69,78.679z"/>
	<path style="fill:#E2574C;" d="M148.528,148.739l35.003,87.482c0,5.881-2.398,8.742-8.707,8.742H34.61
		c-6.309,0-8.716-2.581-8.716-8.48l35.467-87.657C61.361,148.827,148.528,148.739,148.528,148.739z"/>
	<path style="fill:#EE7A6A;" d="M96.198,175.008c-4.839,0-8.76,3.903-8.76,8.742c0,4.83,3.92,8.742,8.76,8.742
		c4.848,0,8.768-3.912,8.768-8.742C104.967,178.911,101.037,175.008,96.198,175.008z M135.656,201.236
		c-7.211,0-13.056,5.872-13.056,13.109c0,7.254,5.846,13.126,13.056,13.126c7.211,0,13.056-5.872,13.056-13.126
		C148.721,207.107,142.875,201.236,135.656,201.236z"/>
	<path style="fill:#D3D3D3;" d="M70.016,34.933h69.666v8.471H70.016V34.933z"/>
</g>
<g>
</g>
<g>
</g>
<g>
</g>
<g>
</g>
<g>
</g>
<g>
</g>
<g>
</g>
<g>
</g>
<g>
</g>
<g>
</g>
<g>
</g>
<g>
</g>
<g>
</g>
<g>
</g>
<g>
</g>
</svg>
