<?xml version="1.0" encoding="iso-8859-1"?>
<!-- Generator: Adobe Illustrator 19.0.0, SVG Export Plug-In . SVG Version: 6.00 Build 0)  -->
<svg version="1.1" id="Layer_1" xmlns="http://www.w3.org/2000/svg" xmlns:xlink="http://www.w3.org/1999/xlink" x="0px" y="0px"
	 viewBox="0 0 512 512" style="enable-background:new 0 0 512 512;" xml:space="preserve">
<path style="fill:#FDC794;" d="M464.271,225.627c0-19.092-15.62-34.712-34.712-34.712s-34.712,15.62-34.712,34.712v-43.39
	c0-19.092-15.62-34.712-34.712-34.712c-19.092,0-34.712,15.62-34.712,34.712V43.39c0-19.092-15.62-34.712-34.712-34.712l0,0
	C271.62,8.678,256,24.298,256,43.39v138.847V78.102c0-19.092-15.62-34.712-34.712-34.712l0,0c-19.092,0-34.712,15.62-34.712,34.712
	v190.915l-15.62-23.43c-17.356-30.373-59.01-44.258-86.78-33.844c-4.339,0.868-6.942,3.471-10.414,5.207
	c-10.414,6.942-8.678,14.753-8.678,17.356c0,2.603,49.464,52.936,78.102,104.136c0,0,25.166,41.654,52.068,69.424v26.034
	c0,43.39,34.712,78.102,78.102,78.102h86.78c33.844,0,68.556-28.637,76.366-61.614c1.736-7.81,5.207-19.092,10.414-25.166
	c7.81-8.678,17.356-30.373,17.356-60.746V225.627z"/>
<path style="fill:#71C386;" d="M82.441,138.847c-5.207,0-8.678-3.471-8.678-8.678V8.678C73.763,3.471,77.234,0,82.441,0
	s8.678,3.471,8.678,8.678v121.492C91.119,135.376,87.647,138.847,82.441,138.847"/>
<g>
	<defs>
		<filter id="Adobe_OpacityMaskFilter" filterUnits="userSpaceOnUse" x="47.729" y="0" width="69.424" height="43.39">
			<feColorMatrix  type="matrix" values="1 0 0 0 0  0 1 0 0 0  0 0 1 0 0  0 0 0 1 0"/>
		</filter>
	</defs>
	<mask maskUnits="userSpaceOnUse" x="47.729" y="0" width="69.424" height="43.39" id="mask-2_1_">
		<g style="filter:url(#Adobe_OpacityMaskFilter);">
			<polygon style="fill:#FFFFFF;" points="117.153,0 47.729,0 47.729,43.39 117.153,43.39 			"/>
		</g>
	</mask>
	<path style="mask:url(#mask-2_1_);fill:#71C386;" d="M108.475,43.39c-2.603,0-4.339-0.868-6.075-2.603L82.441,20.827L62.481,40.786
		c-3.471,3.471-8.678,3.471-12.149,0c-3.471-3.471-3.471-8.678,0-12.149L76.366,2.603c3.471-3.471,8.678-3.471,12.149,0
		l26.034,26.034c3.471,3.471,3.471,8.678,0,12.149C112.814,42.522,111.078,43.39,108.475,43.39"/>
	<path style="fill:#71C386;" d="M82.441,138.847c-2.603,0-4.339-0.868-6.075-2.603L50.332,110.21c-3.471-3.471-3.471-8.678,0-12.149
		c3.471-3.471,8.678-3.471,12.149,0l19.959,19.959L102.4,98.061c3.471-3.471,8.678-3.471,12.149,0c3.471,3.471,3.471,8.678,0,12.149
		l-26.034,26.034C86.78,137.98,85.044,138.847,82.441,138.847"/>
</g>
<g>
	<path style="fill:#F9A671;" d="M195.254,295.051c-3.471,0-6.075-1.736-7.81-5.207l-8.678-17.356c-1.736-4.339,0-9.546,3.471-11.281
		c4.339-1.736,9.546,0,11.281,3.471l8.678,17.356c1.736,4.339,0,9.546-3.471,11.281C197.858,295.051,196.99,295.051,195.254,295.051
		"/>
	<path style="fill:#F9A671;" d="M256,295.051c-5.207,0-8.678-3.471-8.678-8.678V78.102c0-5.207,3.471-8.678,8.678-8.678
		s8.678,3.471,8.678,8.678v208.271C264.678,291.58,261.207,295.051,256,295.051"/>
	<path style="fill:#F9A671;" d="M325.424,286.373c-5.207,0-8.678-3.471-8.678-8.678V176.163c0-5.207,3.471-8.678,8.678-8.678
		c5.207,0,8.678,3.471,8.678,8.678v101.532C334.102,282.902,330.63,286.373,325.424,286.373"/>
	<path style="fill:#F9A671;" d="M394.847,295.051c-5.207,0-8.678-3.471-8.678-8.678v-66.82c0-5.207,3.471-8.678,8.678-8.678
		c5.207,0,8.678,3.471,8.678,8.678v66.82C403.525,291.58,400.054,295.051,394.847,295.051"/>
	<path style="fill:#F9A671;" d="M412.203,442.576c-3.471,0-7.81-2.603-8.678-6.075c-0.868-4.339,1.736-9.546,6.075-10.414
		c20.827-5.207,24.298-6.075,30.373-13.885c2.603-3.471,8.678-4.339,12.149-1.736c3.471,2.603,4.339,8.678,1.736,12.149
		c-9.546,13.017-18.224,14.753-39.051,20.827C413.939,442.576,413.071,442.576,412.203,442.576"/>
	<path style="fill:#F9A671;" d="M238.644,442.576c-1.736,0-3.471-0.868-5.207-1.736c-5.207-4.339-9.546-7.81-14.753-10.414
		c-6.075-4.339-12.149-8.678-20.827-15.62c-3.471-3.471-3.471-8.678-0.868-12.149c3.471-3.471,8.678-3.471,12.149-0.868
		c6.942,6.075,12.149,10.414,18.224,13.885c5.207,3.471,9.546,6.942,15.62,11.281c3.471,3.471,4.339,8.678,0.868,12.149
		C243.851,441.708,241.247,442.576,238.644,442.576"/>
</g>
<g>
</g>
<g>
</g>
<g>
</g>
<g>
</g>
<g>
</g>
<g>
</g>
<g>
</g>
<g>
</g>
<g>
</g>
<g>
</g>
<g>
</g>
<g>
</g>
<g>
</g>
<g>
</g>
<g>
</g>
</svg>
